<mxfile host="app.diagrams.net" modified="2023-06-19T07:43:13.583Z" agent="Mozilla/5.0 (Windows NT 10.0; Win64; x64) AppleWebKit/537.36 (KHTML, like Gecko) Chrome/114.0.0.0 Safari/537.36" etag="yBmKAX8aNi4KAvUTbTLc" version="21.3.8" type="github">
  <diagram name="第 1 页" id="Ml2o0vemRFtSchdJ6_I8">
    <mxGraphModel dx="1014" dy="1701" grid="1" gridSize="10" guides="1" tooltips="1" connect="1" arrows="1" fold="1" page="1" pageScale="1" pageWidth="827" pageHeight="1169" math="0" shadow="0">
      <root>
        <mxCell id="0" />
        <mxCell id="1" parent="0" />
        <mxCell id="o6hoqpGNTlcbE2VblmaY-34" value="" style="rounded=0;whiteSpace=wrap;html=1;fillColor=#cce5ff;strokeColor=#36393d;" vertex="1" parent="1">
          <mxGeometry x="520" y="50" width="430" height="580" as="geometry" />
        </mxCell>
        <mxCell id="o6hoqpGNTlcbE2VblmaY-28" value="" style="rounded=0;whiteSpace=wrap;html=1;fillColor=#d5e8d4;strokeColor=#82b366;" vertex="1" parent="1">
          <mxGeometry x="20" y="50" width="480" height="580" as="geometry" />
        </mxCell>
        <mxCell id="o6hoqpGNTlcbE2VblmaY-3" style="edgeStyle=orthogonalEdgeStyle;rounded=0;orthogonalLoop=1;jettySize=auto;html=1;" edge="1" parent="1" source="o6hoqpGNTlcbE2VblmaY-1" target="o6hoqpGNTlcbE2VblmaY-2">
          <mxGeometry relative="1" as="geometry" />
        </mxCell>
        <mxCell id="o6hoqpGNTlcbE2VblmaY-1" value="&lt;font style=&quot;font-size: 18px;&quot;&gt;开始&lt;/font&gt;" style="strokeWidth=2;html=1;shape=mxgraph.flowchart.start_1;whiteSpace=wrap;" vertex="1" parent="1">
          <mxGeometry x="350" y="80" width="100" height="60" as="geometry" />
        </mxCell>
        <mxCell id="o6hoqpGNTlcbE2VblmaY-7" value="" style="edgeStyle=orthogonalEdgeStyle;rounded=0;orthogonalLoop=1;jettySize=auto;html=1;" edge="1" parent="1" source="o6hoqpGNTlcbE2VblmaY-2" target="o6hoqpGNTlcbE2VblmaY-6">
          <mxGeometry relative="1" as="geometry" />
        </mxCell>
        <mxCell id="o6hoqpGNTlcbE2VblmaY-15" style="edgeStyle=orthogonalEdgeStyle;rounded=0;orthogonalLoop=1;jettySize=auto;html=1;entryX=0;entryY=0.5;entryDx=0;entryDy=0;" edge="1" parent="1" source="o6hoqpGNTlcbE2VblmaY-2" target="o6hoqpGNTlcbE2VblmaY-9">
          <mxGeometry relative="1" as="geometry" />
        </mxCell>
        <mxCell id="o6hoqpGNTlcbE2VblmaY-16" style="edgeStyle=orthogonalEdgeStyle;rounded=0;orthogonalLoop=1;jettySize=auto;html=1;entryX=0;entryY=0.5;entryDx=0;entryDy=0;" edge="1" parent="1" source="o6hoqpGNTlcbE2VblmaY-2" target="o6hoqpGNTlcbE2VblmaY-11">
          <mxGeometry relative="1" as="geometry" />
        </mxCell>
        <mxCell id="o6hoqpGNTlcbE2VblmaY-17" style="edgeStyle=orthogonalEdgeStyle;rounded=0;orthogonalLoop=1;jettySize=auto;html=1;entryX=0;entryY=0.5;entryDx=0;entryDy=0;" edge="1" parent="1" source="o6hoqpGNTlcbE2VblmaY-2" target="o6hoqpGNTlcbE2VblmaY-12">
          <mxGeometry relative="1" as="geometry" />
        </mxCell>
        <mxCell id="o6hoqpGNTlcbE2VblmaY-2" value="&lt;font style=&quot;font-size: 18px;&quot;&gt;同步平台订单信息&lt;/font&gt;" style="rounded=1;whiteSpace=wrap;html=1;absoluteArcSize=1;arcSize=14;strokeWidth=2;" vertex="1" parent="1">
          <mxGeometry x="320" y="180" width="160" height="50" as="geometry" />
        </mxCell>
        <mxCell id="o6hoqpGNTlcbE2VblmaY-4" value="&lt;font style=&quot;font-size: 18px;&quot;&gt;结束&lt;/font&gt;" style="strokeWidth=2;html=1;shape=mxgraph.flowchart.terminator;whiteSpace=wrap;" vertex="1" parent="1">
          <mxGeometry x="40" y="300" width="90" height="50" as="geometry" />
        </mxCell>
        <mxCell id="o6hoqpGNTlcbE2VblmaY-8" value="&lt;font style=&quot;font-size: 14px;&quot;&gt;&lt;b&gt;不完整&lt;/b&gt;&lt;/font&gt;" style="edgeStyle=orthogonalEdgeStyle;rounded=0;orthogonalLoop=1;jettySize=auto;html=1;" edge="1" parent="1" source="o6hoqpGNTlcbE2VblmaY-6" target="o6hoqpGNTlcbE2VblmaY-4">
          <mxGeometry relative="1" as="geometry" />
        </mxCell>
        <mxCell id="o6hoqpGNTlcbE2VblmaY-20" value="&lt;font style=&quot;font-size: 14px;&quot;&gt;&lt;b&gt;完整&lt;/b&gt;&lt;/font&gt;" style="edgeStyle=orthogonalEdgeStyle;rounded=0;orthogonalLoop=1;jettySize=auto;html=1;" edge="1" parent="1" source="o6hoqpGNTlcbE2VblmaY-6" target="o6hoqpGNTlcbE2VblmaY-19">
          <mxGeometry relative="1" as="geometry" />
        </mxCell>
        <mxCell id="o6hoqpGNTlcbE2VblmaY-6" value="&lt;font style=&quot;font-size: 18px;&quot;&gt;获取数据&lt;br&gt;是否完整&lt;/font&gt;" style="rhombus;whiteSpace=wrap;html=1;rounded=1;arcSize=14;strokeWidth=2;" vertex="1" parent="1">
          <mxGeometry x="345" y="280" width="110" height="90" as="geometry" />
        </mxCell>
        <mxCell id="o6hoqpGNTlcbE2VblmaY-31" style="edgeStyle=orthogonalEdgeStyle;rounded=0;orthogonalLoop=1;jettySize=auto;html=1;entryX=0;entryY=0.5;entryDx=0;entryDy=0;" edge="1" parent="1" source="o6hoqpGNTlcbE2VblmaY-9" target="o6hoqpGNTlcbE2VblmaY-30">
          <mxGeometry relative="1" as="geometry" />
        </mxCell>
        <mxCell id="o6hoqpGNTlcbE2VblmaY-9" value="&lt;font style=&quot;font-size: 18px;&quot;&gt;shopee-oms&lt;/font&gt;" style="whiteSpace=wrap;html=1;rounded=1;arcSize=14;strokeWidth=2;" vertex="1" parent="1">
          <mxGeometry x="600" y="120" width="120" height="40" as="geometry" />
        </mxCell>
        <mxCell id="o6hoqpGNTlcbE2VblmaY-32" style="edgeStyle=orthogonalEdgeStyle;rounded=0;orthogonalLoop=1;jettySize=auto;html=1;entryX=0;entryY=0.5;entryDx=0;entryDy=0;" edge="1" parent="1" source="o6hoqpGNTlcbE2VblmaY-11" target="o6hoqpGNTlcbE2VblmaY-30">
          <mxGeometry relative="1" as="geometry" />
        </mxCell>
        <mxCell id="o6hoqpGNTlcbE2VblmaY-11" value="&lt;font style=&quot;font-size: 18px;&quot;&gt;lazada-oms&lt;/font&gt;" style="whiteSpace=wrap;html=1;rounded=1;arcSize=14;strokeWidth=2;" vertex="1" parent="1">
          <mxGeometry x="600" y="185" width="120" height="40" as="geometry" />
        </mxCell>
        <mxCell id="o6hoqpGNTlcbE2VblmaY-33" style="edgeStyle=orthogonalEdgeStyle;rounded=0;orthogonalLoop=1;jettySize=auto;html=1;entryX=0;entryY=0.5;entryDx=0;entryDy=0;" edge="1" parent="1" source="o6hoqpGNTlcbE2VblmaY-12" target="o6hoqpGNTlcbE2VblmaY-30">
          <mxGeometry relative="1" as="geometry" />
        </mxCell>
        <mxCell id="o6hoqpGNTlcbE2VblmaY-12" value="&lt;font style=&quot;font-size: 18px;&quot;&gt;amazon-oms&lt;/font&gt;" style="whiteSpace=wrap;html=1;rounded=1;arcSize=14;strokeWidth=2;" vertex="1" parent="1">
          <mxGeometry x="600" y="247.5" width="120" height="42.5" as="geometry" />
        </mxCell>
        <mxCell id="o6hoqpGNTlcbE2VblmaY-23" style="edgeStyle=orthogonalEdgeStyle;rounded=0;orthogonalLoop=1;jettySize=auto;html=1;entryX=0.5;entryY=0;entryDx=0;entryDy=0;" edge="1" parent="1" source="o6hoqpGNTlcbE2VblmaY-19" target="o6hoqpGNTlcbE2VblmaY-21">
          <mxGeometry relative="1" as="geometry" />
        </mxCell>
        <mxCell id="o6hoqpGNTlcbE2VblmaY-19" value="&lt;font style=&quot;font-size: 18px;&quot;&gt;记录日志&lt;/font&gt;" style="rounded=1;whiteSpace=wrap;html=1;arcSize=14;strokeWidth=2;" vertex="1" parent="1">
          <mxGeometry x="340" y="430" width="120" height="40" as="geometry" />
        </mxCell>
        <mxCell id="o6hoqpGNTlcbE2VblmaY-24" style="edgeStyle=orthogonalEdgeStyle;rounded=0;orthogonalLoop=1;jettySize=auto;html=1;" edge="1" parent="1" source="o6hoqpGNTlcbE2VblmaY-21" target="o6hoqpGNTlcbE2VblmaY-22">
          <mxGeometry relative="1" as="geometry" />
        </mxCell>
        <mxCell id="o6hoqpGNTlcbE2VblmaY-21" value="&lt;font style=&quot;font-size: 18px;&quot;&gt;价格均摊计算&lt;/font&gt;" style="rounded=1;whiteSpace=wrap;html=1;arcSize=14;strokeWidth=2;" vertex="1" parent="1">
          <mxGeometry x="340" y="500" width="120" height="40" as="geometry" />
        </mxCell>
        <mxCell id="o6hoqpGNTlcbE2VblmaY-26" style="edgeStyle=orthogonalEdgeStyle;rounded=0;orthogonalLoop=1;jettySize=auto;html=1;entryX=0.5;entryY=1;entryDx=0;entryDy=0;entryPerimeter=0;" edge="1" parent="1" source="o6hoqpGNTlcbE2VblmaY-22" target="o6hoqpGNTlcbE2VblmaY-4">
          <mxGeometry relative="1" as="geometry" />
        </mxCell>
        <mxCell id="o6hoqpGNTlcbE2VblmaY-22" value="&lt;font style=&quot;font-size: 18px;&quot;&gt;利润率计算&lt;/font&gt;" style="rounded=1;whiteSpace=wrap;html=1;arcSize=14;strokeWidth=2;" vertex="1" parent="1">
          <mxGeometry x="340" y="570" width="120" height="40" as="geometry" />
        </mxCell>
        <mxCell id="o6hoqpGNTlcbE2VblmaY-25" value="&lt;font color=&quot;#7f00ff&quot; style=&quot;font-size: 18px;&quot;&gt;&lt;b&gt;单笔订单数据更新流程&lt;/b&gt;&lt;/font&gt;" style="text;html=1;strokeColor=none;fillColor=none;align=center;verticalAlign=middle;whiteSpace=wrap;rounded=0;" vertex="1" parent="1">
          <mxGeometry x="70" y="-20" width="190" height="80" as="geometry" />
        </mxCell>
        <mxCell id="o6hoqpGNTlcbE2VblmaY-29" value="&lt;font style=&quot;font-size: 18px;&quot;&gt;&lt;b&gt;OMS 端控制&lt;/b&gt;&lt;/font&gt;" style="text;html=1;strokeColor=none;fillColor=none;align=center;verticalAlign=middle;whiteSpace=wrap;rounded=0;" vertex="1" parent="1">
          <mxGeometry x="70" y="90" width="110" height="30" as="geometry" />
        </mxCell>
        <mxCell id="o6hoqpGNTlcbE2VblmaY-30" value="&lt;font style=&quot;font-size: 18px;&quot;&gt;&lt;b&gt;第三方平台&lt;/b&gt;&lt;/font&gt;" style="whiteSpace=wrap;html=1;aspect=fixed;fillColor=#ffcccc;strokeColor=#36393d;" vertex="1" parent="1">
          <mxGeometry x="810" y="145" width="120" height="120" as="geometry" />
        </mxCell>
        <mxCell id="o6hoqpGNTlcbE2VblmaY-35" value="&lt;font style=&quot;font-size: 18px;&quot;&gt;&lt;b&gt;平台API对接端控制&lt;/b&gt;&lt;/font&gt;" style="text;html=1;strokeColor=none;fillColor=none;align=center;verticalAlign=middle;whiteSpace=wrap;rounded=0;" vertex="1" parent="1">
          <mxGeometry x="680" y="70" width="170" height="30" as="geometry" />
        </mxCell>
      </root>
    </mxGraphModel>
  </diagram>
</mxfile>
